<?xml version="1.0" encoding="UTF-8"?><svg xmlns="http://www.w3.org/2000/svg" viewBox="0 0 239.92 77.65"><defs><style>.d{fill:#fff;}.e{fill:#3996d3;}</style></defs><g id="a"/><g id="b"><g id="c"><g><g><g><rect class="e" x="6.56" y="29.82" width="16.7" height="47.83"/><polygon class="d" points="23.91 20.82 14.91 11.81 5.9 20.82 0 14.91 14.91 0 29.82 14.91 23.91 20.82"/></g><g><rect class="d" x="53.24" y="38.74" width="5.99" height="29.84"/><path class="d" d="M79.16,68.58v-14.5c0-3.27-2.07-4.38-3.96-4.38s-4.01,1.11-4.01,4.38v14.5h-5.98v-23.99h5.85v2.21c1.57-1.66,3.78-2.48,5.99-2.48,2.39,0,4.33,.78,5.66,2.12,1.94,1.93,2.44,4.19,2.44,6.82v15.33h-5.99Z"/><path class="d" d="M98.09,68.58c-4.88,0-6.95-3.45-6.95-6.86v-22.98h5.98v6.54h4.24v4.56h-4.24v11.52c0,1.38,.65,2.16,2.07,2.16h2.17v5.06h-3.27Z"/><path class="d" d="M110.24,58.45c0,3.08,1.89,5.34,5.25,5.34,2.62,0,3.91-.74,5.43-2.26l3.64,3.55c-2.44,2.44-4.79,3.77-9.12,3.77-5.66,0-11.1-2.58-11.1-12.29,0-7.83,4.24-12.25,10.46-12.25,6.68,0,10.45,4.88,10.45,11.47v2.67h-15.01Zm8.56-6.69c-.64-1.43-1.98-2.48-4-2.48s-3.36,1.06-4.01,2.48c-.37,.88-.51,1.53-.55,2.58h9.12c-.04-1.06-.18-1.71-.55-2.58Z"/><path class="d" d="M184.66,68.58v-2.07c-1.61,1.61-3.13,2.3-5.89,2.3s-4.69-.69-6.12-2.12c-1.29-1.33-1.98-3.27-1.98-5.39,0-3.82,2.63-6.95,8.19-6.95h5.66v-1.19c0-2.63-1.29-3.78-4.47-3.78-2.3,0-3.36,.55-4.6,1.98l-3.82-3.73c2.35-2.58,4.65-3.31,8.66-3.31,6.72,0,10.22,2.86,10.22,8.47v15.79h-5.85Zm-.14-10.12h-4.74c-2.16,0-3.36,1.01-3.36,2.71s1.1,2.76,3.45,2.76c1.66,0,2.72-.14,3.77-1.15,.65-.6,.87-1.57,.87-3.04v-1.29Z"/><path class="d" d="M209.27,68.58v-2.25c-1.66,1.84-3.41,2.53-5.94,2.53-2.35,0-4.56-.83-5.89-2.16-2.39-2.39-2.44-6.54-2.44-10.13s.05-7.69,2.44-10.09c1.34-1.34,3.5-2.16,5.85-2.16s4.28,.64,5.85,2.39v-7.96h5.99v29.84h-5.85Zm-4.24-18.88c-3.59,0-4.05,2.95-4.05,6.87s.46,6.91,4.05,6.91,4.1-2.99,4.1-6.91-.51-6.87-4.1-6.87Z"/><path class="d" d="M237.2,65.91c-1.47,1.57-3.92,2.95-7.46,2.95s-5.94-1.38-7.41-2.95c-2.17-2.25-2.71-4.97-2.71-9.35s.55-7.05,2.71-9.3c1.47-1.57,3.87-2.95,7.41-2.95s5.99,1.38,7.46,2.95c2.16,2.25,2.72,4.97,2.72,9.3s-.55,7.09-2.72,9.35Zm-4.65-15.15c-.69-.69-1.61-1.06-2.81-1.06s-2.07,.37-2.76,1.06c-1.24,1.24-1.38,3.32-1.38,5.81s.14,4.6,1.38,5.85c.69,.69,1.57,1.06,2.76,1.06s2.12-.37,2.81-1.06c1.24-1.25,1.38-3.36,1.38-5.85s-.14-4.56-1.38-5.81Z"/><path class="d" d="M161.42,46.89v-2.3h-5.85v23.99h5.99v-14.46c0-3.04,2.03-4.43,3.87-4.43h3.11v-5.13c-4.74,0-4.78-.25-7.11,2.33Z"/><path class="d" d="M143.79,44.59v2.25c-1.66-1.84-3.32-2.53-5.85-2.53-2.35,0-4.42,.78-5.76,2.12-2.26,2.25-2.44,5.3-2.44,9.49s.18,7.27,2.44,9.53c1.34,1.34,3.36,2.12,5.71,2.12s4.14-.64,5.71-2.39v2.44c0,2.37-1.18,4.83-4.56,4.96h-6.28v5.08h6.28c6.45,0,10.54-4.19,10.54-9.95v-23.11h-5.8Zm-4.15,17.59c-3.54,0-3.91-3.08-3.91-6.26s.37-6.22,3.91-6.22,3.96,3.05,3.96,6.22-.42,6.26-3.96,6.26Z"/></g></g><g><path class="d" d="M69.91,32.97c-.68,0-1.27-.25-1.72-.7-.64-.64-.63-1.37-.63-2.63s0-1.99,.63-2.63c.45-.45,1.04-.7,1.72-.7,1.2,0,2.11,.71,2.34,2.01h-1.01c-.16-.66-.6-1.12-1.32-1.12-.39,0-.74,.15-.97,.4-.32,.35-.4,.73-.4,2.04s.07,1.69,.4,2.04c.23,.25,.58,.4,.97,.4,.73,0,1.18-.46,1.33-1.12h1c-.22,1.31-1.15,2.01-2.34,2.01Z"/><path class="d" d="M76.55,32.92v-6.55h4.18v.89h-3.19v1.91h2.72v.88h-2.72v1.97h3.19v.89h-4.18Z"/><path class="d" d="M89.09,32.92l-3.03-4.61v4.61h-.99v-6.55h.91l3.02,4.6v-4.6h.99v6.55h-.91Z"/><path class="d" d="M96.9,27.27v5.65h-.99v-5.65h-1.8v-.89h4.6v.89h-1.8Z"/><path class="d" d="M106.42,32.92l-1.38-2.76h-1.24v2.76h-.99v-6.55h2.54c1.24,0,2.03,.8,2.03,1.91,0,.94-.57,1.54-1.31,1.74l1.51,2.9h-1.16Zm-1.15-5.65h-1.47v2.05h1.47c.66,0,1.11-.38,1.11-1.02s-.45-1.03-1.11-1.03Z"/><path class="d" d="M115.65,32.28c-.45,.45-1.03,.7-1.73,.7s-1.27-.25-1.72-.7c-.64-.64-.63-1.37-.63-2.63s0-1.99,.63-2.63c.45-.45,1.02-.7,1.72-.7s1.28,.25,1.73,.7c.64,.64,.63,1.37,.63,2.63s.02,1.99-.63,2.63Zm-.75-4.66c-.23-.25-.59-.4-.97-.4s-.74,.16-.97,.4c-.32,.35-.39,.72-.39,2.03s.07,1.68,.39,2.03c.23,.25,.59,.4,.97,.4s.75-.16,.97-.4c.32-.35,.39-.72,.39-2.03s-.07-1.68-.39-2.03Z"/><path class="d" d="M128.15,32.97c-1.33,0-2.34-.91-2.34-2.26v-4.34h.99v4.29c0,.87,.53,1.42,1.35,1.42s1.36-.54,1.36-1.42v-4.29h.99v4.34c0,1.35-1.02,2.26-2.35,2.26Z"/><path class="d" d="M139.11,32.92l-3.03-4.61v4.61h-.99v-6.55h.91l3.02,4.6v-4.6h.99v6.55h-.91Z"/><path class="d" d="M144.71,32.92v-6.55h.99v6.55h-.99Z"/><path class="d" d="M152.5,32.92h-.77l-2.15-6.55h1.03l1.51,4.76,1.51-4.76h1.05l-2.17,6.55Z"/><path class="d" d="M158.55,32.92v-6.55h4.18v.89h-3.19v1.91h2.72v.88h-2.72v1.97h3.19v.89h-4.18Z"/><path class="d" d="M170.68,32.92l-1.38-2.76h-1.24v2.76h-.99v-6.55h2.54c1.24,0,2.03,.8,2.03,1.91,0,.94-.57,1.54-1.31,1.74l1.51,2.9h-1.16Zm-1.15-5.65h-1.47v2.05h1.47c.66,0,1.11-.38,1.11-1.02s-.45-1.03-1.11-1.03Z"/><path class="d" d="M177.81,32.97c-.98,0-1.69-.23-2.32-.86l.66-.65c.48,.48,1,.63,1.67,.63,.86,0,1.35-.37,1.35-1,0-.29-.08-.52-.26-.68-.17-.16-.33-.22-.72-.28l-.77-.11c-.53-.07-.96-.26-1.24-.52-.32-.3-.48-.72-.48-1.25,0-1.14,.83-1.92,2.19-1.92,.86,0,1.47,.22,2.03,.74l-.63,.63c-.4-.39-.87-.51-1.43-.51-.77,0-1.2,.44-1.2,1.02,0,.24,.07,.45,.25,.61,.17,.15,.43,.26,.74,.3l.75,.11c.61,.09,.95,.24,1.22,.49,.36,.31,.53,.78,.53,1.34,0,1.2-.98,1.92-2.35,1.92Z"/><path class="d" d="M184.47,32.92v-6.55h.99v6.55h-.99Z"/><path class="d" d="M192.37,27.27v5.65h-.99v-5.65h-1.8v-.89h4.6v.89h-1.8Z"/><path class="d" d="M201.49,32.92l-.45-1.31h-2.58l-.45,1.31h-1.06l2.4-6.55h.8l2.4,6.55h-1.06Zm-1.72-5.07l-1.02,2.91h2.01l-.99-2.91Zm.18-2.11h-.71l.69-1.49h1.04l-1.02,1.49Z"/><path class="d" d="M210.06,32.92l-1.38-2.76h-1.24v2.76h-.99v-6.55h2.54c1.24,0,2.03,.8,2.03,1.91,0,.94-.57,1.54-1.31,1.74l1.51,2.9h-1.16Zm-1.15-5.65h-1.47v2.05h1.47c.66,0,1.11-.38,1.11-1.02s-.45-1.03-1.11-1.03Z"/><path class="d" d="M215.45,32.92v-6.55h.99v6.55h-.99Z"/><path class="d" d="M224.97,32.28c-.45,.45-1.03,.7-1.73,.7s-1.27-.25-1.72-.7c-.64-.64-.63-1.37-.63-2.63s0-1.99,.63-2.63c.45-.45,1.02-.7,1.72-.7s1.28,.25,1.73,.7c.64,.64,.63,1.37,.63,2.63s.02,1.99-.63,2.63Zm-.75-4.66c-.23-.25-.59-.4-.97-.4s-.74,.16-.97,.4c-.32,.35-.39,.72-.39,2.03s.07,1.68,.39,2.03c.23,.25,.59,.4,.97,.4s.75-.16,.97-.4c.32-.35,.39-.72,.39-2.03s-.06-1.68-.39-2.03Z"/></g></g></g></g></svg>